              <svg data-background-color="#000000" preserveAspectRatio="xMidYMid meet" height="320" width="360" xmlns="http://www.w3.org/2000/svg" xmlns:xlink="http://www.w3.org/1999/xlink" viewBox="0 0 320 360">
                <g>
                  <svg></svg>
                </g>
                <g>
                  <svg viewBox="0 0 320 360" height="360" width="320">
                    <g>
                      <path xmlns="http://www.w3.org/2000/svg" d="M307.925 179.999l6.575-11.387c11.322-19.607 4.604-44.679-15.003-56.001l-11.387-6.575v-13.151c0-22.639-18.354-40.994-40.994-40.994h-13.151l-6.575-11.387c-11.322-19.607-36.393-26.325-56.001-15.003l-11.39 6.572-11.387-6.576c-19.607-11.318-44.679-4.6-56.001 15.007l-6.575 11.387h-13.151c-22.639 0-40.994 18.354-40.994 40.994v13.151l-11.387 6.575c-19.607 11.322-26.325 36.393-15.003 56.001l6.572 11.387-6.576 11.387c-11.318 19.607-4.6 44.679 15.007 56l11.387 6.576v13.15c0 22.639 18.354 40.994 40.994 40.994h13.151l6.575 11.387c11.322 19.607 36.393 26.325 56.001 15.003l11.387-6.571 11.387 6.575c19.607 11.322 44.679 4.604 56-15.003l6.576-11.387h13.15c22.639 0 40.994-18.354 40.994-40.994v-13.151l11.387-6.575c19.607-11.322 26.325-36.393 15.003-56.001zM297.702 115.716c8.655 4.996 14.842 13.062 17.428 22.713 2.586 9.65 1.261 19.734-3.735 28.384l-5.538 9.596-17.747-30.74v-35.494zM251.155 271.155l-57.791 33.365h-66.731l-57.791-33.365-33.365-57.791v-66.731l33.365-57.791 57.791-33.365h66.731l57.791 33.365 33.365 57.791v66.731zM284.517 220.539v31.351l-27.151 15.676zM247.566 277.366l-15.676 27.151h-31.351zM187.15 308.106l-27.151 15.676-27.151-15.676zM119.459 304.517h-31.352l-15.676-27.151zM62.632 267.566l-27.151-15.676v-31.351zM31.891 207.15l-15.675-27.151 15.675-27.151zM35.481 139.459v-31.352l27.151-15.676zM72.431 82.632l15.676-27.151h31.352zM132.848 51.891l27.151-15.675 27.151 15.675zM200.539 55.481h31.351l15.676 27.151zM257.366 92.431l27.151 15.676v31.352zM288.106 152.848l15.676 27.151-15.676 27.151zM247.112 55.481c9.992 0 19.384 3.889 26.452 10.956 7.063 7.063 10.956 16.46 10.957 26.452v11.079l-30.741-17.747-17.747-30.74zM173.18 28.606c8.655-4.996 18.735-6.322 28.385-3.735 9.65 2.586 17.716 8.777 22.712 17.428l5.538 9.596h-35.494l-30.741-17.747zM95.716 42.295c4.996-8.655 13.062-14.842 22.713-17.428 9.65-2.586 19.734-1.261 28.384 3.736l9.596 5.537-30.74 17.747h-35.494zM35.481 92.885c0-9.992 3.889-19.384 10.956-26.452 7.063-7.063 16.46-10.956 26.452-10.956h11.079l-17.747 30.74-30.74 17.747zM8.606 166.817c-4.996-8.655-6.322-18.735-3.735-28.385 2.586-9.65 8.777-17.716 17.428-22.712l9.596-5.538v35.495l-17.747 30.74zM22.295 244.281c-8.655-4.996-14.842-13.062-17.428-22.712-2.586-9.65-1.261-19.734 3.736-28.385l5.537-9.596 17.747 30.74v35.495zM72.885 304.517c-9.992 0-19.384-3.889-26.452-10.957-7.063-7.063-10.956-16.46-10.956-26.451v-11.08l30.74 17.747 17.747 30.741zM146.817 331.391c-8.655 4.996-18.735 6.322-28.385 3.735-9.65-2.586-17.716-8.777-22.712-17.428l-5.538-9.596h35.495l30.74 17.747zM224.281 317.702c-4.996 8.655-13.062 14.842-22.712 17.428-9.65 2.586-19.734 1.261-28.385-3.735l-9.596-5.538 30.74-17.747h35.495zM284.517 267.112c0 9.992-3.889 19.384-10.957 26.452-7.063 7.063-16.46 10.956-26.451 10.957h-11.08l17.747-30.741 30.741-17.747zM315.13 221.565c-2.586 9.65-8.777 17.716-17.428 22.712l-9.596 5.538v-35.494l17.747-30.741 5.538 9.596c4.996 8.658 6.326 18.739 3.739 28.389z" fill="#000" fill-rule="nonzero" stroke="none" stroke-width="1" stroke-linecap="butt" stroke-linejoin="miter" stroke-miterlimit="10" stroke-dasharray="" stroke-dashoffset="0" font-family="none" font-weight="none" font-size="none" text-anchor="none" style="mix-blend-mode: normal" data-fill-palette-color="tertiary">
                      </path>
                    </g>
                    <g transform="matrix(1,0,0,1,64,121.6954128440367)">
                      <svg viewBox="0 0 192 116.60917431192662" height="116.60917431192662" width="192">
                        <g>
                          <svg viewBox="0 0 192 116.60917431192662" height="116.60917431192662" width="192">
                            <g>
                              <svg viewBox="0 0 192 116.60917431192662" height="116.60917431192662" width="192">
                                <g>
                                  <svg viewBox="0 0 192 116.60917431192662" height="116.60917431192662" width="192">
                                    <g id="textblocktransform">
                                      <svg viewBox="0 0 192 116.60917431192662" height="116.60917431192662" width="192" id="textblock">
                                        <g>
                                          <svg viewBox="0 0 192 116.60917431192662" height="116.60917431192662" width="192">
                                            <g transform="matrix(1,0,0,1,0,0)">
                                              <svg width="192" viewBox="2.5999999046325684 -32.52000045776367 54.5 33.10000228881836" height="116.60917431192662" data-palette-color="#000">
                                                <path d="M14.45 0.58L14.45 0.58Q8.53 0.58 5.56-2.75 2.6-6.08 2.6-12.2L2.6-12.2 2.6-19.78Q2.6-25.9 5.55-29.21 8.5-32.52 14.4-32.52L14.4-32.52Q16.3-32.52 17.86-32.18 19.43-31.83 20.65-31.28 21.88-30.73 22.73-30.13L22.73-30.13 23.08-26.28Q21.6-27.33 19.61-28.11 17.63-28.9 14.95-28.9L14.95-28.9Q10.93-28.9 8.88-26.51 6.83-24.13 6.83-19.73L6.83-19.73 6.83-12.35Q6.83-7.98 8.9-5.56 10.98-3.15 15.1-3.15L15.1-3.15Q17.75-3.15 19.79-3.93 21.83-4.7 23.33-5.83L23.33-5.83 22.98-1.88Q22.13-1.28 20.88-0.7 19.63-0.13 18.01 0.23 16.4 0.58 14.45 0.58ZM51.52 0L51.52-29.68 47.65-29.68 47.65 0 51.52 0ZM44.8-31.63L45.07-28.63 57.1-28.63 56.85-31.63 44.8-31.63ZM24.45-31.63L24.72-28.63 52.65-28.63 52.37-31.63 24.45-31.63ZM35.25-21.25L32.62-19.98 44.27-7.3 46.52-8.88 35.25-21.25ZM28.2-14.15L28.2-13.7Q28.2-8.93 30.95-6.49 33.7-4.05 38.72-4.05L38.72-4.05Q41.27-4.05 43.03-4.65 44.8-5.25 45.87-6.31 46.95-7.38 47.42-8.75L47.42-8.75 47.95-8.75 47.77-12.38Q47.07-9.93 45.03-8.61 43-7.3 39.35-7.3L39.35-7.3Q35.85-7.3 33.97-8.91 32.1-10.53 32.1-13.8L32.1-13.8 32.1-14.08Q32.1-17.38 33.82-18.95 35.55-20.53 39.15-20.53L39.15-20.53Q40.6-20.53 41.95-20.35 43.3-20.18 44.57-19.85L44.57-19.85 44.27-23.03Q43.05-23.38 41.65-23.55 40.25-23.73 38.7-23.73L38.7-23.73Q33.52-23.73 30.86-21.26 28.2-18.8 28.2-14.15L28.2-14.15Z" opacity="1" transform="matrix(1,0,0,1,0,0)" fill="#000" class="wordmark-text-0" data-fill-palette-color="primary" id="text-0"></path>
                                              </svg>
                                            </g>
                                          </svg>
                                        </g>
                                      </svg>
                                    </g>
                                  </svg>
                                </g>
                                <g></g>
                              </svg>
                            </g>
                          </svg>
                        </g>
                      </svg>
                    </g>
                  </svg>
                </g>
                <defs></defs>
              </svg>